<mxfile host="app.diagrams.net" modified="2023-08-07T15:24:13.672Z" agent="Mozilla/5.0 (Macintosh; Intel Mac OS X 10_15_7) AppleWebKit/537.36 (KHTML, like Gecko) Chrome/115.0.0.0 Safari/537.36" version="21.6.6" etag="d9VZz95n3K-9bayZ7084" type="github">
  <diagram name="第 1 页" id="nrQ97I8aDQJ6jYaaCO9X">
    <mxGraphModel>
      <root>
        <mxCell id="0" />
        <mxCell id="1" parent="0" />
      </root>
    </mxGraphModel>
  </diagram>
</mxfile>
